<?xml version="1.0" encoding="UTF-8" standalone="no"?>
<!-- Created with Inkscape (http://www.inkscape.org/) -->

<svg
   xmlns:dc="http://purl.org/dc/elements/1.1/"
   xmlns:cc="http://creativecommons.org/ns#"
   xmlns:rdf="http://www.w3.org/1999/02/22-rdf-syntax-ns#"
   xmlns:svg="http://www.w3.org/2000/svg"
   xmlns="http://www.w3.org/2000/svg"
   xmlns:xlink="http://www.w3.org/1999/xlink"
   xmlns:sodipodi="http://sodipodi.sourceforge.net/DTD/sodipodi-0.dtd"
   xmlns:inkscape="http://www.inkscape.org/namespaces/inkscape"
   width="256"
   height="256"
   id="svg2"
   sodipodi:version="0.32"
   inkscape:version="0.47 r22583"
   sodipodi:docname="stumbleupon.svg"
   version="1.0"
   inkscape:output_extension="org.inkscape.output.svg.inkscape">
  <defs
     id="defs4">
    <linearGradient
       inkscape:collect="always"
       id="linearGradient2555">
      <stop
         style="stop-color: rgb(255, 255, 255); stop-opacity: 1;"
         offset="0"
         id="stop2557" />
      <stop
         style="stop-color: rgb(255, 255, 255); stop-opacity: 0;"
         offset="1"
         id="stop2559" />
    </linearGradient>
    <linearGradient
       inkscape:collect="always"
       xlink:href="#linearGradient2555"
       id="linearGradient2449"
       gradientUnits="userSpaceOnUse"
       gradientTransform="matrix(-0.5914583,0,0,0.5914584,210.0216,142.2324)"
       x1="-344.15295"
       y1="274.711"
       x2="-395.84943"
       y2="425.39993" />
  </defs>
  <sodipodi:namedview
     id="base"
     pagecolor="#ffffff"
     bordercolor="#666666"
     borderopacity="1.0"
     inkscape:pageopacity="0.0"
     inkscape:pageshadow="2"
     inkscape:zoom="0.35"
     inkscape:cx="0.58946023"
     inkscape:cy="172.73086"
     inkscape:document-units="px"
     inkscape:current-layer="layer1"
     inkscape:window-width="897"
     inkscape:window-height="530"
     inkscape:window-x="0"
     inkscape:window-y="0"
     showgrid="false"
     inkscape:window-maximized="0" />
  <metadata
     id="metadata7">
    <rdf:RDF>
      <cc:Work
         rdf:about="">
        <dc:format>image/svg+xml</dc:format>
        <dc:type
           rdf:resource="http://purl.org/dc/dcmitype/StillImage" />
        <dc:title />
        <dc:creator>
          <cc:Agent>
            <dc:title />
          </cc:Agent>
        </dc:creator>
        <dc:subject>
          <rdf:Bag />
        </dc:subject>
        <cc:license
           rdf:resource="http://creativecommons.org/licenses/publicdomain/" />
        <dc:description />
        <dc:contributor>
          <cc:Agent>
            <dc:title />
          </cc:Agent>
        </dc:contributor>
      </cc:Work>
      <cc:License
         rdf:about="http://creativecommons.org/licenses/publicdomain/">
        <cc:permits
           rdf:resource="http://creativecommons.org/ns#Reproduction" />
        <cc:permits
           rdf:resource="http://creativecommons.org/ns#Distribution" />
        <cc:permits
           rdf:resource="http://creativecommons.org/ns#DerivativeWorks" />
      </cc:License>
    </rdf:RDF>
  </metadata>
  <g
     inkscape:label="Layer 1"
     inkscape:groupmode="layer"
     id="layer1"
     transform="translate(-373.642,-318.344)">
    <path
       transform="scale(-1,1)"
       style="fill:#098aab;fill-opacity:1;fill-rule:evenodd;stroke:none"
       d="m -583.65837,328.84921 25.15845,0 138.87439,0 c 19.66007,0 35.4875,15.82743 35.4875,35.48751 l 0,125.65954 0,38.355 c 0,19.66007 -15.82743,35.4875 -35.4875,35.4875 l -164.03284,0 c -19.66008,0 -35.4875,-15.82743 -35.4875,-35.4875 l 0,-164.01454 c 0,-19.66008 15.82742,-35.48751 35.4875,-35.48751 z"
       id="rect1942"
       sodipodi:nodetypes="ccccccccccc" />
    <path
       sodipodi:nodetypes="cccccccccccccccccccccccc"
       id="path19268"
       d="m -558.49992,328.84921 138.87439,0 c 19.66007,0 35.4875,15.82743 35.4875,35.48751 l 0,125.65954 0,14.14214 -85.323,-1.11878 -12.92673,-16.8088 -1.69611,-13.79596 7.67752,-14.17729 11.57018,-6.44624 15.02996,-3.53313 12.98232,-1.41164 5.48602,-4.78945 -0.28654,-14.71527 -1.92397,-10.05545 -9.51833,-6.73681 -75.54725,3.7548 -10.39206,19.87614 -2.68359,57.55968 -15.69788,7.63245 -20.41964,-2.17937 -12.03026,-12.16159 -3.27485,-156.09914 24.61232,-0.0833 z"
       style="fill:#5ac364;fill-opacity:1;fill-rule:evenodd;stroke:none"
       transform="scale(-1,1)" />
    <path
       inkscape:export-ydpi="7.7063322"
       inkscape:export-xdpi="7.7063322"
       inkscape:export-filename="C:\Documents and Settings\Molumen\Desktop\path3511111.png"
       sodipodi:nodetypes="ccccsssc"
       id="path1950"
       d="M 557.05665,338.89518 L 446.22721,338.89518 C 416.89033,338.89518 393.27256,362.70492 393.27256,392.28025 L 393.27256,500.40761 C 394.22216,523.49366 397.87485,508.89915 404.82758,483.3329 C 412.90814,453.61975 439.22406,427.65003 471.27219,408.1872 C 495.73352,393.33195 523.11328,383.84595 572.95174,382.94353 C 601.21656,382.43177 598.72124,346.26062 557.05665,338.89518 z"
       style="opacity:0.48497854;fill:url(#linearGradient2449);fill-opacity:1;fill-rule:evenodd;stroke:none;stroke-width:0.87500000000000000;stroke-linecap:square;stroke-linejoin:miter;stroke-miterlimit:4;stroke-dasharray:0.87500000000000000, 1.75000000000000000;stroke-dashoffset:0;stroke-opacity:1" />
    <path
       style="fill:none;stroke:#ffffff;stroke-width:25;stroke-linecap:butt;stroke-linejoin:miter;stroke-opacity:1;stroke-miterlimit:4;stroke-dasharray:none"
       d="M 9.3469905,185.28571 84.826685,184.57143 C 120.62127,184.0198 118.58638,128.85148 83.607323,128.85714 L 70,128.85714 C 44.974478,128.3356 46.135175,90.238615 69.642857,90.642857 l 61.428573,1.071429 c 16.50294,0.159529 20.76004,17.507924 21.07143,28.214284 l 1.15808,33.71937 c 1.65933,26.94868 18.73551,31.50392 29.5562,30.92349 C 197.19375,185.13382 212.17569,174.32544 212.5,148.5 L 212.14286,17.785714"
       id="path19270"
       transform="translate(373.642,318.344)"
       sodipodi:nodetypes="ccccccccccc" />
    <path
       style="fill:#ffffff;stroke:none;stroke-width:1px;stroke-linecap:butt;stroke-linejoin:miter;stroke-opacity:1;fill-opacity:1"
       d="m 199.6314,19.498035 0,-9.091373 10.6066,0 c 8.63531,0.332788 10.98599,1.551947 14.39467,3.156727 l 0,7.702413 -25.00127,-1.767767 z"
       id="path19272"
       transform="translate(373.642,318.344)"
       sodipodi:nodetypes="cccccc" />
  </g>
</svg>
